# xmcd CD database file
#
# Track frame offsets:
#	150
#	14720
#	31171
#	37202
#	52579
#	71408
#	96168
#	111305
#	138580
#	161632
#	179833
#	203322
#
# Disc length: 2976 seconds
#
# Revision: 0
# Processed by: cddbd v1.5.1PL2 Copyright (c) Steve Scherf et al.
# Submitted via: CDex 1.51
#
DISCID=a50b9e0c
DTITLE=Curtis Jones, Martin Norgood - Dreaming of Spain
DYEAR=1900
DGENRE=Jazz
TTITLE0=Dreaming of Spain
TTITLE1=View from my window
TTITLE2=amelia's voyage
TTITLE3=amelia in flight
TTITLE4=twilight 
TTITLE5=spanish rain
TTITLE6=holly on the mountain
TTITLE7=stochello
TTITLE8=song for jim
TTITLE9=django and al
TTITLE10=pop's shop
TTITLE11=cynthia's dance
EXTD=
EXTT0=
EXTT1=
EXTT2=
EXTT3=
EXTT4=
EXTT5=
EXTT6=
EXTT7=
EXTT8=
EXTT9=
EXTT10=
EXTT11=
PLAYORDER=
